<svg width="10" height="7" viewBox="0 0 10 7" fill="none" xmlns="http://www.w3.org/2000/svg">
<path d="M5.08368 6.49502C5.24429 6.47622 5.39375 6.40347 5.50762 6.2887L9.79165 2.0061C9.85796 1.93947 9.91049 1.86043 9.94623 1.7735C9.98198 1.68657 10.0003 1.59344 10 1.49945C9.99974 1.40546 9.98097 1.31244 9.94475 1.2257C9.90854 1.13896 9.85558 1.06021 9.78891 0.993936C9.72225 0.927658 9.64317 0.875148 9.55621 0.839422C9.46924 0.803695 9.37609 0.785452 9.28207 0.785717C9.18805 0.785982 9.095 0.804753 9.00824 0.840968C8.92148 0.877184 8.8427 0.930126 8.77641 0.996779L5 4.77194L1.22359 0.996779C1.1573 0.930127 1.07852 0.877185 0.991761 0.840969C0.904998 0.804754 0.811949 0.785982 0.717927 0.785718C0.623907 0.785453 0.530754 0.803696 0.443789 0.839423C0.356824 0.875149 0.277751 0.927659 0.211084 0.993936C0.144417 1.06021 0.0914636 1.13896 0.0552459 1.2257C0.0190282 1.31244 0.000256093 1.40546 2.42386e-06 1.49945C-0.000252199 1.59344 0.0180164 1.68657 0.0537639 1.7735C0.0895124 1.86043 0.14204 1.93947 0.208347 2.0061L4.49238 6.2887C4.56878 6.36574 4.66174 6.42438 4.7642 6.46013C4.86666 6.49588 4.97592 6.50781 5.08368 6.49502Z" fill="white"/>
</svg>
